<svg width="60" height="60" viewBox="0 0 60 60" fill="none" xmlns="http://www.w3.org/2000/svg">
<g clip-path="url(#clip0_109_91104)">
<rect width="60" height="60" fill="#3A3A3C"/>
<rect width="60" height="60" fill="#181818"/>
<g clip-path="url(#clip1_109_91104)">
<rect x="12.25" y="12.25" width="5.1" height="5.1" fill="#FBBF24"/>
<rect x="12.25" y="12.25" width="5.1" height="5.1" stroke="white" stroke-width="0.5"/>
<rect x="19.85" y="12.25" width="5.1" height="5.1" stroke="white" stroke-width="0.5"/>
<rect x="27.45" y="12.25" width="5.1" height="5.1" stroke="white" stroke-width="0.5"/>
<rect x="35.05" y="12.25" width="5.1" height="5.1" fill="#34D399"/>
<rect x="35.05" y="12.25" width="5.1" height="5.1" stroke="white" stroke-width="0.5"/>
<rect x="42.65" y="12.25" width="5.1" height="5.1" fill="#FBBF24"/>
<rect x="42.65" y="12.25" width="5.1" height="5.1" stroke="white" stroke-width="0.5"/>
</g>
<g clip-path="url(#clip2_109_91104)">
<rect x="12.25" y="19.8496" width="5.1" height="5.1" fill="#34D399"/>
<rect x="12.25" y="19.8496" width="5.1" height="5.1" stroke="white" stroke-width="0.5"/>
<rect x="19.85" y="19.8496" width="5.1" height="5.1" stroke="white" stroke-width="0.5"/>
<rect x="27.45" y="19.8496" width="5.1" height="5.1" fill="#34D399"/>
<rect x="27.45" y="19.8496" width="5.1" height="5.1" stroke="white" stroke-width="0.5"/>
<rect x="35.05" y="19.8496" width="5.1" height="5.1" fill="#34D399"/>
<rect x="35.05" y="19.8496" width="5.1" height="5.1" stroke="white" stroke-width="0.5"/>
<rect x="42.65" y="19.8496" width="5.1" height="5.1" stroke="white" stroke-width="0.5"/>
</g>
<g clip-path="url(#clip3_109_91104)">
<rect x="12.25" y="27.4502" width="5.1" height="5.1" fill="#34D399"/>
<rect x="12.25" y="27.4502" width="5.1" height="5.1" stroke="white" stroke-width="0.5"/>
<rect x="19.85" y="27.4502" width="5.1" height="5.1" fill="#FBBF24"/>
<rect x="19.85" y="27.4502" width="5.1" height="5.1" stroke="white" stroke-width="0.5"/>
<rect x="27.45" y="27.4502" width="5.1" height="5.1" fill="#34D399"/>
<rect x="27.45" y="27.4502" width="5.1" height="5.1" stroke="white" stroke-width="0.5"/>
<rect x="35.05" y="27.4502" width="5.1" height="5.1" fill="#34D399"/>
<rect x="35.05" y="27.4502" width="5.1" height="5.1" stroke="white" stroke-width="0.5"/>
<rect x="42.65" y="27.4502" width="5.1" height="5.1" stroke="white" stroke-width="0.5"/>
</g>
<g clip-path="url(#clip4_109_91104)">
<rect x="12.25" y="35.0498" width="5.1" height="5.1" fill="#34D399"/>
<rect x="12.25" y="35.0498" width="5.1" height="5.1" stroke="white" stroke-width="0.5"/>
<rect x="19.85" y="35.0498" width="5.1" height="5.1" fill="#34D399"/>
<rect x="19.85" y="35.0498" width="5.1" height="5.1" stroke="white" stroke-width="0.5"/>
<rect x="27.45" y="35.0498" width="5.1" height="5.1" fill="#34D399"/>
<rect x="27.45" y="35.0498" width="5.1" height="5.1" stroke="white" stroke-width="0.5"/>
<rect x="35.05" y="35.0498" width="5.1" height="5.1" fill="#34D399"/>
<rect x="35.05" y="35.0498" width="5.1" height="5.1" stroke="white" stroke-width="0.5"/>
<rect x="42.65" y="35.0498" width="5.1" height="5.1" fill="#34D399"/>
<rect x="42.65" y="35.0498" width="5.1" height="5.1" stroke="white" stroke-width="0.5"/>
</g>
<g clip-path="url(#clip5_109_91104)">
<rect x="12.25" y="42.6504" width="5.1" height="5.1" stroke="white" stroke-width="0.5"/>
<rect x="19.85" y="42.6504" width="5.1" height="5.1" stroke="white" stroke-width="0.5"/>
<rect x="27.45" y="42.6504" width="5.1" height="5.1" stroke="white" stroke-width="0.5"/>
<rect x="35.05" y="42.6504" width="5.1" height="5.1" stroke="white" stroke-width="0.5"/>
<rect x="42.65" y="42.6504" width="5.1" height="5.1" stroke="white" stroke-width="0.5"/>
</g>
</g>
<defs>
<clipPath id="clip0_109_91104">
<rect width="60" height="60" fill="white"/>
</clipPath>
<clipPath id="clip1_109_91104">
<rect width="36" height="5.6" fill="white" transform="translate(12 12)"/>
</clipPath>
<clipPath id="clip2_109_91104">
<rect width="36" height="5.6" fill="white" transform="translate(12 19.5996)"/>
</clipPath>
<clipPath id="clip3_109_91104">
<rect width="36" height="5.6" fill="white" transform="translate(12 27.2002)"/>
</clipPath>
<clipPath id="clip4_109_91104">
<rect width="36" height="5.6" fill="white" transform="translate(12 34.7998)"/>
</clipPath>
<clipPath id="clip5_109_91104">
<rect width="36" height="5.6" fill="white" transform="translate(12 42.4004)"/>
</clipPath>
</defs>
</svg>
